<?xml version="1.0" standalone="no"?>
<!DOCTYPE svg PUBLIC "-//W3C//DTD SVG 20010904//EN"
 "http://www.w3.org/TR/2001/REC-SVG-20010904/DTD/svg10.dtd">
<svg version="1.0" xmlns="http://www.w3.org/2000/svg"
 width="200.000000pt" height="200.000000pt" viewBox="0 0 200.000000 200.000000"
 preserveAspectRatio="xMidYMid meet">

<g transform="translate(0.000000,200.000000) scale(0.100000,-0.100000)"
fill="#000000" stroke="none">
<path d="M17 543 c-4 -3 -7 -105 -7 -225 l0 -218 30 0 29 0 3 137 c2 110 6
138 17 138 8 0 36 -46 65 -105 45 -92 54 -105 76 -105 22 0 32 14 80 107 30
60 61 108 68 108 9 0 12 -35 12 -141 l0 -140 33 3 32 3 3 209 c3 226 1 236
-49 236 -28 0 -33 -8 -97 -140 -37 -77 -73 -140 -79 -140 -7 0 -44 63 -83 140
-65 130 -72 140 -98 140 -16 0 -32 -3 -35 -7z"/>
<path d="M922 538 c-7 -7 -12 -40 -12 -85 0 -40 -3 -73 -7 -73 -5 0 -17 7 -27
15 -11 9 -41 15 -69 15 -91 0 -147 -59 -147 -155 0 -52 16 -89 54 -124 33 -31
111 -40 157 -17 40 20 49 20 49 1 0 -10 10 -15 30 -15 l30 0 -2 223 c-3 214
-4 222 -23 225 -11 1 -26 -3 -33 -10z m-41 -207 c59 -60 29 -165 -52 -177 -46
-8 -95 31 -105 82 -18 98 88 163 157 95z"/>
<path d="M1297 543 c-4 -3 -7 -39 -7 -79 0 -40 -4 -75 -9 -78 -4 -3 -17 1 -27
9 -29 22 -113 19 -152 -5 -37 -23 -72 -88 -72 -135 0 -47 35 -112 72 -135 41
-25 109 -26 149 -3 27 16 29 16 42 -1 8 -11 22 -17 38 -14 l24 3 3 200 c3 229
1 245 -32 245 -12 0 -26 -3 -29 -7z m-58 -197 c99 -52 41 -215 -68 -191 -73
16 -97 120 -42 176 33 32 67 37 110 15z"/>
<path d="M526 522 c-11 -34 4 -53 38 -50 27 3 31 7 31 33 0 26 -4 30 -32 33
-24 2 -33 -1 -37 -16z"/>
<path d="M536 402 c-3 -3 -6 -72 -6 -153 l0 -149 26 -6 c17 -4 29 -2 35 7 14
23 11 299 -3 300 -7 0 -21 2 -30 4 -9 2 -19 0 -22 -3z"/>
<path d="M1490 403 c-27 -10 -70 -56 -70 -75 0 -27 44 -23 74 7 32 32 87 34
117 4 37 -37 22 -53 -51 -57 -86 -4 -119 -18 -136 -59 -12 -28 -12 -38 0 -67
8 -19 23 -39 34 -45 31 -17 114 -13 141 6 22 15 25 15 36 0 7 -10 22 -17 34
-17 20 0 21 4 21 120 0 118 0 120 -29 152 -26 29 -35 32 -92 35 -35 1 -71 0
-79 -4z m130 -182 c0 -11 -11 -32 -23 -47 -38 -44 -117 -32 -117 17 0 28 39
49 92 49 41 0 48 -3 48 -19z"/>
<path d="M1804 400 c-29 -12 -54 -49 -54 -80 0 -36 36 -66 95 -81 67 -16 85
-26 85 -47 0 -28 -21 -42 -62 -42 -29 0 -41 6 -54 26 -12 18 -24 24 -42 22
-36 -4 -37 -22 -4 -59 26 -29 36 -33 94 -37 58 -4 67 -2 96 23 25 21 32 35 32
63 0 49 -22 69 -102 93 -38 11 -72 27 -75 35 -15 41 75 63 99 24 13 -21 68
-29 68 -9 0 58 -104 98 -176 69z"/>
</g>
</svg>
